<?xml version="1.0" encoding="UTF-8"?><svg id="Layer_2" xmlns="http://www.w3.org/2000/svg" viewBox="0 0 159.95 46.8"><defs><style>.cls-1{fill:#040504;}</style></defs><g id="finalize-variations"><path class="cls-1" d="m56.24,20.4c-.35,0-.49-.15-.49-.49v-1.05c0-.35.15-.49.49-.49h3.17V2.09h-3.17c-.35,0-.49-.15-.49-.49V.55c0-.35.15-.49.49-.49h8.23c.35,0,.49.15.49.49v1.05c0,.35-.15.49-.49.49h-3.17v16.28h11.16l.52-4.71c.03-.26.17-.44.58-.44h.35c.41,0,.55.15.55.49v6.19c0,.23-.09.49-.46.49h-17.76Z"/><path class="cls-1" d="m90.9,19.91c0,.29-.17.46-.44.49-2.01.26-3.37-.41-3.84-2.38-.84,1.69-3.08,2.73-5.06,2.73-2.94,0-5.49-1.37-5.49-4.62s2.85-4.68,5.7-4.62c1.72.03,3.6.61,4.77,1.83v-2.5c0-2.3-1.89-3.17-3.9-3.17s-3.66.67-5.32,2.03c-.09.06-.44.38-.44-.03v-1.95c0-.12.03-.23.15-.32,1.42-1.05,3.43-1.83,5.7-1.83,3.37,0,5.55,1.54,5.55,4.91v6.08c0,1.13.52,1.8,1.77,1.8h.44c.29,0,.41.17.41.44v1.1Zm-4.39-4.27c0-1.45-2.53-2.18-4.53-2.18-2.62,0-4.04,1.16-4.04,2.65,0,1.66,1.57,2.62,3.84,2.62s4.74-1.19,4.74-2.53v-.55Z"/><path class="cls-1" d="m103.92,20.4c-.41,0-.52-.2-.58-.46l-.64-2.3h-.12c-.9,2.56-3.26,3.14-4.91,3.14-3.08,0-4.62-2.09-4.62-3.81v-8.95h-2.65c-.29,0-.49-.2-.49-.49v-1.05c0-.29.2-.49.49-.49h3.9c.29,0,.49.2.49.49v9.97c0,1.48,1.4,2.27,3.02,2.27,2.24,0,4.88-1.42,4.88-4.39v-6.31h-2.88c-.29,0-.49-.2-.49-.49v-1.05c0-.29.2-.49.49-.49h4.13c.29,0,.49.2.49.49v9.71l.99,3.69c.09.29-.09.52-.47.52h-1.05Z"/><path class="cls-1" d="m118.88,20.4c-.29,0-.49-.2-.49-.49v-1.05c0-.29.2-.49.49-.49h2.76v-8.43c0-1.48-1.54-2.24-3.34-2.24-2.41,0-5.32,1.42-5.32,4.36v6.31h2.53c.29,0,.49.2.49.49v1.05c0,.29-.2.49-.49.49h-7.06c-.29,0-.49-.2-.49-.49v-1.05c0-.29.2-.49.49-.49h2.79v-10.35h-3.05c-.41,0-.52-.15-.52-.49v-1.05c0-.35.17-.49.46-.49h4.24c.41,0,.55.2.58.46l.2,2.33h.12c.9-2.56,3.52-3.2,5.17-3.2,3.08,0,4.94,1.51,4.94,3.84v8.95h2.65c.29,0,.49.2.49.49v1.05c0,.29-.2.49-.49.49h-7.15Z"/><path class="cls-1" d="m140.41,18.25c0,.17-.06.32-.2.44-1.08.87-3.08,2.06-6.1,2.06-4.33,0-7.27-2.56-7.27-7.56s3.37-7.62,7.5-7.62c2.47,0,4.42.84,5.73,1.89.15.12.2.26.2.44v2.47c0,.12-.09.23-.2.26l-.46.15c-.15.06-.23-.03-.26-.2-.35-2.01-2.53-2.96-4.94-2.96-3.58,0-5.73,2.15-5.73,5.58s1.86,5.52,5.55,5.52c2.85,0,4.77-1.16,5.41-2.76.03-.09.15-.12.23-.09l.41.14c.09.03.15.12.15.2v2.03Z"/><path class="cls-1" d="m152.23,20.4c-.29,0-.49-.2-.49-.49v-1.05c0-.29.2-.49.49-.49h2.76v-8.4c0-1.48-1.54-2.3-3.28-2.3-2.44,0-5.38,1.45-5.38,4.42v6.28h2.53c.29,0,.49.2.49.49v1.05c0,.29-.2.49-.49.49h-7.06c-.29,0-.49-.2-.49-.49v-1.05c0-.29.2-.49.49-.49h2.79V2.09h-3.05c-.41,0-.52-.15-.52-.49V.55c0-.35.17-.49.46-.49h4.27c.41,0,.58.2.58.46v8.26h.29c.9-2.56,3.52-3.2,5.17-3.2,3.08,0,4.94,1.54,4.94,3.87v8.92h2.65c.29,0,.49.2.49.49v1.05c0,.29-.2.49-.49.49h-7.15Z"/><path class="cls-1" d="m74.44,46.4c-.35,0-.49-.15-.49-.49v-1.05c0-.35.15-.49.49-.49h2.53v-15.96l-6.66,14.45c-.15.29-.23.44-.61.44h-1.63c-.38,0-.46-.15-.61-.44l-6.66-14.45v15.96h2.53c.35,0,.49.15.49.49v1.05c0,.35-.15.49-.49.49h-7.09c-.35,0-.49-.15-.49-.49v-1.05c0-.35.15-.49.49-.49h2.76v-16.28h-2.76c-.35,0-.49-.15-.49-.49v-1.05c0-.35.15-.49.49-.49h4.77c.44,0,.78-.03,1.05.55l6.83,15.09,6.83-15.09c.26-.58.61-.55,1.05-.55h4.77c.35,0,.49.15.49.49v1.05c0,.35-.15.49-.49.49h-2.76v16.28h2.76c.35,0,.49.15.49.49v1.05c0,.35-.15.49-.49.49h-7.09Z"/><path class="cls-1" d="m98.82,45.91c0,.29-.17.46-.44.49-2.01.26-3.37-.41-3.84-2.38-.84,1.69-3.08,2.73-5.06,2.73-2.94,0-5.49-1.37-5.49-4.62s2.85-4.68,5.7-4.62c1.72.03,3.6.61,4.77,1.83v-2.5c0-2.3-1.89-3.17-3.89-3.17s-3.66.67-5.32,2.03c-.09.06-.44.38-.44-.03v-1.95c0-.12.03-.23.15-.32,1.42-1.05,3.43-1.83,5.7-1.83,3.37,0,5.55,1.54,5.55,4.91v6.08c0,1.13.52,1.8,1.77,1.8h.44c.29,0,.41.17.41.44v1.1Zm-4.39-4.27c0-1.45-2.53-2.18-4.53-2.18-2.62,0-4.04,1.16-4.04,2.65,0,1.66,1.57,2.62,3.84,2.62s4.74-1.19,4.74-2.53v-.55Z"/><path class="cls-1" d="m101.45,46.4c-.29,0-.46-.15-.46-.49v-1.05c0-.35.12-.49.52-.49h3.25v-10.43h-3.25c-.44-.03-.52-.15-.52-.49v-.96c0-.35.17-.49.46-.49h4.01c.49,0,.7.38.7.79v3.14h.23c.52-2.62,2.35-3.92,4.21-3.92.55,0,1.77.06,2.47.76.06.06.06.09.06.17v2.03c0,.09,0,.2-.09.2h-.38c-.09,0-.15-.06-.2-.12-.52-.52-1.22-.73-2.12-.73-1.89,0-3.84,1.8-3.84,5v5.06h3.31c.41,0,.52.15.52.49v1.05c0,.35-.17.49-.47.49h-8.43Z"/><path class="cls-1" d="m132.21,42.48c.17,0,.2.06.23.17.09.32.15.76.15,1.1,0,1.74-1.08,2.99-3.4,2.99-4.91,0-6.37-7.79-9.21-6.22v3.84h2.65c.41,0,.52.15.52.49v1.05c0,.35-.17.49-.46.49h-7.41c-.29,0-.46-.15-.46-.49v-1.05c0-.35.12-.49.52-.49h2.91v-16.28h-3.14c-.41,0-.52-.15-.52-.49v-1.05c0-.35.17-.49.46-.49h4.3c.44,0,.64.29.64.7v8.63h.09c1.34-2.65,3.52-3.81,5.78-3.81,2.73,0,4.41,1.43,4.41,3.96,0,3.08-2.23,5.17-5.95,5.17v.15c1.25,1.57,3.23,3.89,5.12,3.87,1.16-.03,1.98-.2,2.33-2.01.03-.12.06-.23.23-.23h.23Zm-8.96-3.94c1.45,0,5,.24,5-2,0-1.6-.87-2.92-2.58-2.92-2.06,0-4.92,1.26-5.42,4.92h3Z"/><path class="cls-1" d="m146.36,44.51c0,.17-.06.32-.2.44-1.19.96-3.02,1.8-5.44,1.8-3.75,0-7.38-2.56-7.38-7.67s3.2-7.5,7.15-7.5c4.48,0,6.51,3.08,6.51,6.54v1.34c0,.2-.15.35-.35.35h-11.48c.2,3.46,2.85,4.91,5.55,4.91,2.15,0,4.27-.93,5.09-2.5.03-.09.12-.09.17-.06l.26.15c.09.06.12.09.12.17v2.03Zm-1.08-6.6c0-2.82-2.06-4.3-4.91-4.3-3.28,0-4.91,2.04-5.23,4.3h10.14Z"/><path class="cls-1" d="m158.2,38.64c0-.17.09-.29.38-.29h1.05c.17,0,.32.06.32.29v3.08c0,3.78-2.65,5.03-4.97,5.03-3.08,0-4.68-1.57-4.68-4.3v-8.43h-2.06c-.41,0-.52-.12-.52-.46v-.06c0-.2.06-.35.2-.52l3.34-3.84c.15-.17.26-.26.41-.26h.06c.23,0,.32.15.32.44v2.67h7.06c.26,0,.35.12.35.29v1.42c0,.17-.12.32-.35.32h-7.06v8.34c0,1.8,1.54,2.35,2.97,2.35,1.54,0,3.2-.79,3.2-2.99v-3.08Z"/><g id="final-version-1"><path class="cls-1" d="m23.07,43.51c-.42,0-.76-.33-.77-.75l-.27-10.78.99.25c2.8.71,6.3,1,6.85.28,1.65-2.18,1.61-19.49-.05-22.31-.08-.13-.5-.35-1.3-.39-1.17-.06-2.18.3-2.39.59-.61.84-.21,5.78.05,9.05.37,4.58.55,7.44.04,8.68-.38.91-1.86,1.19-2.79,1.04-.81-.14-1.33-.61-1.37-1.28-.04-.56-.09-1.77-.15-3.44-.23-5.9-.78-19.71-1.77-21.71-.33-.66-1.14-1.1-2.18-1.18-1.36-.11-2.71.44-3.37,1.35-.45.75-.6,6.14-.7,9.7-.14,4.99-.25,8.09-.67,9.2-.22.59-.82.98-1.7,1.1-.98.14-2.64-.05-3.28-.91-.67-.89-.57-3.36-.15-9.2.25-3.55.6-8.42.08-9.42-.09-.18-.51-.41-1.21-.47-1.21-.1-2.53.32-3.01.95-2.55,3.37-3.72,19.87-.21,23.96,1.17,1.36,5.95,1.41,8.69,1.12l.85-.09v13.87c0,.43-.35.77-.77.77s-.77-.35-.77-.77v-12.17c-2.15.15-7.44.3-9.17-1.73C-1.68,23.91.05,6.46,2.71,2.95c.94-1.25,2.93-1.68,4.38-1.56,1.2.1,2.07.56,2.45,1.29.67,1.3.48,4.74.09,10.25-.23,3.15-.53,7.47-.15,8.18.08.08.56.3,1.27.32.59.02.94-.11,1.03-.18.35-1.01.46-5.08.56-8.67.18-6.49.33-9.65.98-10.56C14.3.65,16.17-.14,18.07.02c1.58.13,2.87.89,3.44,2.03,1.06,2.12,1.55,12.64,1.94,22.34.06,1.46.1,2.63.14,3.24.3.09.99,0,1.22-.16.37-1.07.08-4.69-.18-7.89-.44-5.47-.64-8.87.24-10.09.68-.94,2.36-1.29,3.72-1.22,1.25.06,2.15.47,2.56,1.15,2,3.4,1.96,21.37-.05,24.03-1.21,1.6-5.27.99-7.47.52l.22,8.76c.01.43-.33.78-.75.79h-.02Z"/><path class="cls-1" d="m1.14,45.86c4.01-.44,31.75-1.26,32.44,0s-25.88,1.12-32.44.37c-.48-.05-.48-.32,0-.37Z"/><path class="cls-1" d="m41.34,41.11c-.3,0-.59-.18-.72-.48-.16-.4.03-.85.42-1.01,4-1.64,5.93-6.23,4.3-10.23-1.64-4.01-6.23-5.93-10.23-4.3-.4.16-.85-.03-1.01-.42-.16-.4.03-.85.42-1.01,4.8-1.96,10.29.35,12.25,5.14,1.96,4.79-.35,10.29-5.14,12.25-.1.04-.19.06-.29.06Z"/></g></g></svg>