<?xml version="1.0" encoding="UTF-8"?><svg id="Layer_2" xmlns="http://www.w3.org/2000/svg" viewBox="0 0 171.07 168.67"><defs><style>.cls-1{fill:#040504;}</style></defs><g id="finalize-variations"><g id="final-version-1"><path class="cls-1" d="m83.13,156.81c-1.51,0-2.75-1.2-2.79-2.72l-.97-38.83,3.56.9c10.1,2.56,22.72,3.61,24.68,1.02,5.95-7.87,5.81-70.24-.18-80.41-.28-.47-1.79-1.26-4.68-1.41-4.23-.2-7.87,1.1-8.62,2.12-2.2,3.02-.77,20.83.18,32.62,1.33,16.49,2,26.82.14,31.27-1.38,3.3-6.72,4.29-10.04,3.73-2.93-.49-4.78-2.22-4.94-4.62-.14-2.04-.31-6.38-.54-12.39-.84-21.25-2.8-71.02-6.39-78.22-1.18-2.37-4.11-3.96-7.84-4.25-4.89-.38-9.77,1.57-12.14,4.87-1.62,2.7-2.15,22.12-2.51,34.97-.49,17.97-.9,29.17-2.41,33.17-.79,2.11-2.97,3.52-6.14,3.97-3.52.51-9.51-.18-11.84-3.28-2.42-3.22-2.05-12.11-.54-33.15.92-12.81,2.17-30.35.3-33.96-.34-.66-1.85-1.46-4.37-1.68-4.37-.36-9.13,1.14-10.86,3.42-9.19,12.16-13.4,71.6-.76,86.36,4.21,4.92,21.43,5.08,31.3,4.04l3.08-.33v49.98c0,1.54-1.25,2.79-2.79,2.79s-2.79-1.25-2.79-2.79v-43.84c-7.76.55-26.8,1.08-33.05-6.22C-6.04,86.15.17,23.29,9.75,10.62c3.39-4.49,10.57-6.06,15.77-5.62,4.33.37,7.47,2.02,8.84,4.66,2.43,4.67,1.74,17.07.32,36.92-.81,11.37-1.93,26.93-.52,29.46.28.3,2.02,1.07,4.59,1.15,2.11.09,3.37-.38,3.71-.64,1.25-3.64,1.65-18.29,2.01-31.24.64-23.4,1.2-34.79,3.54-38.06C51.54,2.34,58.27-.49,65.13.07c5.7.45,10.33,3.19,12.39,7.32,3.81,7.64,5.6,45.55,6.98,80.49.21,5.25.37,9.49.5,11.68,1.08.32,3.56.02,4.4-.56,1.34-3.85.29-16.9-.64-28.44-1.58-19.7-2.32-31.98.87-36.35,2.46-3.38,8.51-4.67,13.4-4.41,4.49.22,7.77,1.69,9.21,4.15,7.21,12.25,7.08,77-.18,86.6-4.37,5.78-18.99,3.57-26.93,1.86l.79,31.55c.04,1.54-1.18,2.82-2.72,2.86h-.07Z"/><path class="cls-1" d="m4.11,165.27c14.45-1.59,114.41-4.56,116.91,0,2.5,4.57-93.26,4.04-116.91,1.33-1.72-.2-1.74-1.14,0-1.33Z"/><path class="cls-1" d="m148.97,148.15c-1.1,0-2.14-.65-2.58-1.73-.58-1.42.1-3.05,1.53-3.63,14.43-5.9,21.38-22.44,15.48-36.87-5.9-14.44-22.44-21.38-36.87-15.48-1.42.59-3.05-.1-3.63-1.53-.58-1.42.1-3.05,1.53-3.63,17.28-7.06,37.08,1.25,44.14,18.53,7.06,17.28-1.25,37.08-18.53,44.14-.34.14-.7.21-1.05.21Z"/></g></g></svg>