<?xml version="1.0" encoding="UTF-8"?>
<svg id="Layer_1" xmlns="http://www.w3.org/2000/svg" viewBox="0 0 1068 229.29">
  <defs>
    <style>
      .cls-1 {
        fill: #030404;
      }

      .cls-2 {
        fill: #060606;
      }
    </style>
  </defs>
  <g id="final-version-1">
    <path class="cls-1" d="M113,213.17c-2.05,0-3.73-1.64-3.79-3.7l-1.31-52.79,4.84,1.23c13.73,3.49,30.88,4.91,33.54,1.39,8.08-10.69,7.89-95.48-.24-109.31-.37-.64-2.43-1.72-6.36-1.91-5.75-.27-10.7,1.49-11.72,2.89-2.99,4.1-1.04,28.32.25,44.34,1.8,22.42,2.71,36.46.19,42.51-1.87,4.48-9.13,5.83-13.65,5.07-3.99-.66-6.5-3.01-6.72-6.28-.18-2.77-.42-8.67-.74-16.84-1.14-28.89-3.8-96.54-8.69-106.34-1.6-3.22-5.59-5.38-10.66-5.78-6.64-.52-13.28,2.13-16.5,6.63-2.2,3.67-2.93,30.07-3.41,47.54-.67,24.43-1.22,39.65-3.27,45.09-1.08,2.87-4.04,4.78-8.34,5.4-4.78.69-12.93-.25-16.09-4.46-3.29-4.38-2.78-16.47-.74-45.06,1.25-17.41,2.95-41.25.4-46.16-.46-.9-2.52-1.99-5.94-2.28-5.94-.49-12.41,1.54-14.76,4.65-12.5,16.53-18.21,97.33-1.04,117.4,5.72,6.68,29.13,6.91,42.55,5.49l4.19-.45v67.94c0,2.09-1.7,3.79-3.79,3.79s-3.79-1.7-3.79-3.79v-59.6c-10.55.74-36.43,1.47-44.92-8.46C-8.21,117.11.23,31.66,13.26,14.43c4.61-6.1,14.36-8.23,21.44-7.64,5.89.5,10.16,2.75,12.02,6.34,3.3,6.35,2.36,23.2.43,50.19-1.11,15.45-2.62,36.61-.71,40.05.38.41,2.75,1.45,6.25,1.56,2.87.12,4.58-.52,5.04-.86,1.7-4.95,2.24-24.86,2.73-42.47.87-31.82,1.63-47.29,4.82-51.74C70.07,3.18,79.21-.66,88.54.09c7.74.62,14.04,4.34,16.84,9.95,5.18,10.38,7.61,61.93,9.48,109.42.28,7.14.51,12.9.68,15.88,1.47.43,4.84.03,5.99-.76,1.82-5.23.39-22.97-.87-38.67-2.15-26.78-3.15-43.47,1.18-49.41,3.34-4.59,11.57-6.34,18.21-5.99,6.11.3,10.56,2.3,12.52,5.64,9.8,16.66,9.62,104.67-.24,117.72-5.94,7.85-25.82,4.86-36.61,2.52l1.07,42.89c.05,2.09-1.6,3.83-3.69,3.88h-.09Z"/>
    <path class="cls-1" d="M5.59,224.66c19.64-2.17,155.53-6.2,158.93,0s-126.78,5.49-158.93,1.81c-2.33-.27-2.36-1.55,0-1.81Z"/>
    <path class="cls-1" d="M202.5,201.4c-1.49,0-2.91-.89-3.51-2.36-.79-1.94.14-4.15,2.07-4.94,19.62-8.02,29.06-30.5,21.04-50.12-8.02-19.62-30.51-29.06-50.12-21.04-1.94.8-4.15-.14-4.94-2.07-.79-1.94.14-4.15,2.07-4.94,23.49-9.6,50.41,1.7,60.01,25.19,9.6,23.49-1.7,50.41-25.19,60.01-.47.19-.95.28-1.43.28Z"/>
  </g>
  <g id="final-horizontal">
    <path class="cls-2" d="M251.98,135.71c-.73,0-1.04-.3-1.04-1.04v-2.2c0-.73.31-1.03,1.04-1.03h6.65v-34.18h-11.53l-1.16,8.97c-.06.3-.24.68-.79.68h-1.28c-.49,0-.73-.19-.73-.73v-12.51c0-.42.31-.67.73-.67h33.5c.43,0,.73.24.73.67v12.51c0,.55-.24.73-.73.73h-1.28c-.55,0-.73-.37-.79-.68l-1.16-8.97h-11.53v34.18h6.65c.73,0,1.04.3,1.04,1.03v2.2c0,.73-.3,1.04-1.04,1.04h-17.27Z"/>
    <path class="cls-2" d="M305.92,135.71c-.61,0-1.04-.43-1.04-1.04v-2.2c0-.61.43-1.03,1.04-1.03h5.8v-17.64c0-3.11-3.24-4.82-6.9-4.82-5.13,0-11.29,3.05-11.29,9.27v13.19h5.31c.61,0,1.04.42,1.04,1.03v2.2c0,.61-.43,1.04-1.04,1.04h-14.83c-.61,0-1.04-.43-1.04-1.04v-2.2c0-.61.43-1.03,1.04-1.03h5.86v-34.18h-6.41c-.85,0-1.1-.3-1.1-1.04v-2.19c0-.73.37-1.04.98-1.04h8.97c.86,0,1.22.42,1.22.97v17.34h.61c1.89-5.38,7.38-6.72,10.86-6.72,6.47,0,10.38,3.24,10.38,8.12v18.73h5.55c.61,0,1.04.42,1.04,1.03v2.2c0,.61-.43,1.04-1.04,1.04h-15.01Z"/>
    <path class="cls-2" d="M352.22,131.74c0,.36-.12.67-.43.91-2.5,2.01-6.34,3.79-11.41,3.79-7.87,0-15.5-5.38-15.5-16.11s6.71-15.75,15.01-15.75c9.4,0,13.67,6.47,13.67,13.74v2.81c0,.42-.3.73-.73.73h-24.11c.43,7.26,5.98,10.31,11.65,10.31,4.52,0,8.97-1.95,10.68-5.24.06-.19.24-.19.37-.13l.55.3c.18.13.24.19.24.36v4.28ZM349.96,117.89c0-5.92-4.33-9.03-10.31-9.03-6.89,0-10.31,4.27-10.99,9.03h21.3Z"/>
    <path class="cls-2" d="M245.39,227.88c-1.46,0-2.08-.61-2.08-2.07v-4.4c0-1.46.61-2.08,2.08-2.08h13.3v-68.35h-13.3c-1.46,0-2.08-.61-2.08-2.07v-4.4c0-1.46.61-2.07,2.08-2.07h34.54c1.46,0,2.08.61,2.08,2.07v4.4c0,1.46-.61,2.07-2.08,2.07h-13.31v68.35h46.87l2.2-19.77c.12-1.1.73-1.83,2.44-1.83h1.46c1.71,0,2.32.61,2.32,2.07v26c0,.97-.37,2.07-1.95,2.07h-74.57Z"/>
    <path class="cls-2" d="M385,226.04c0,1.09-.65,1.74-1.63,1.85-7.48.98-12.58-1.52-14.32-8.9-3.14,6.3-11.5,10.2-18.88,10.2-10.96,0-20.5-5.1-20.5-17.25s10.63-17.47,21.27-17.26c6.4.11,13.45,2.28,17.79,6.84v-9.33c0-8.57-7.05-11.82-14.54-11.82s-13.67,2.5-19.86,7.59c-.32.22-1.63,1.41-1.63-.11v-7.27c0-.44.11-.87.54-1.2,5.32-3.91,12.81-6.83,21.27-6.83,12.58,0,20.72,5.75,20.72,18.34v22.67c0,4.24,1.95,6.73,6.62,6.73h1.63c1.09,0,1.52.65,1.52,1.63v4.12ZM368.62,210.09c0-5.43-9.44-8.14-16.93-8.14-9.76,0-15.08,4.34-15.08,9.87,0,6.18,5.86,9.76,14.32,9.76s17.68-4.45,17.68-9.44v-2.06Z"/>
    <path class="cls-2" d="M434.89,227.88c-1.52,0-1.95-.76-2.17-1.73l-2.39-8.57h-.43c-3.36,9.55-12.15,11.72-18.34,11.72-11.5,0-17.25-7.81-17.25-14.21v-33.42h-9.87c-1.09,0-1.84-.76-1.84-1.85v-3.91c0-1.09.76-1.85,1.84-1.85h14.54c1.08,0,1.84.76,1.84,1.85v37.22c0,5.53,5.21,8.46,11.28,8.46,8.35,0,18.23-5.32,18.23-16.38v-23.54h-10.74c-1.09,0-1.84-.76-1.84-1.85v-3.91c0-1.09.76-1.85,1.84-1.85h15.41c1.09,0,1.84.76,1.84,1.85v36.24l3.69,13.78c.32,1.09-.33,1.95-1.74,1.95h-3.91Z"/>
    <path class="cls-2" d="M488.35,227.88c-1.09,0-1.84-.76-1.84-1.85v-3.91c0-1.09.76-1.84,1.84-1.84h10.31v-31.47c0-5.53-5.75-8.35-12.48-8.35-9,0-19.86,5.32-19.86,16.28v23.55h9.44c1.09,0,1.85.75,1.85,1.84v3.91c0,1.09-.76,1.85-1.85,1.85h-26.36c-1.09,0-1.85-.76-1.85-1.85v-3.91c0-1.09.76-1.84,1.85-1.84h10.42v-38.63h-11.39c-1.52,0-1.96-.54-1.96-1.85v-3.91c0-1.3.65-1.85,1.74-1.85h15.84c1.52,0,2.06.76,2.17,1.74l.76,8.68h.43c3.36-9.55,13.13-11.94,19.31-11.94,11.5,0,18.45,5.64,18.45,14.32v33.42h9.87c1.09,0,1.84.75,1.84,1.84v3.91c0,1.09-.76,1.85-1.84,1.85h-26.69Z"/>
    <path class="cls-2" d="M570.02,219.85c0,.65-.22,1.19-.76,1.63-4.01,3.26-11.5,7.71-22.78,7.71-16.17,0-27.13-9.55-27.13-28.21s12.59-28.42,27.99-28.42c9.22,0,16.49,3.14,21.37,7.05.54.44.76.98.76,1.63v9.22c0,.44-.32.87-.76.98l-1.74.54c-.54.21-.87-.11-.98-.76-1.3-7.49-9.44-11.07-18.45-11.07-13.35,0-21.37,8.03-21.37,20.83s6.94,20.61,20.72,20.61c10.63,0,17.79-4.34,20.18-10.31.11-.32.54-.43.87-.32l1.52.54c.33.11.54.44.54.76v7.59Z"/>
    <path class="cls-2" d="M617.63,227.88c-1.09,0-1.84-.76-1.84-1.85v-3.91c0-1.09.76-1.84,1.84-1.84h10.31v-31.36c0-5.53-5.75-8.57-12.26-8.57-9.12,0-20.07,5.42-20.07,16.49v23.44h9.44c1.09,0,1.85.75,1.85,1.84v3.91c0,1.09-.76,1.85-1.85,1.85h-26.36c-1.09,0-1.85-.76-1.85-1.85v-3.91c0-1.09.76-1.84,1.85-1.84h10.42v-60.76h-11.4c-1.52,0-1.95-.54-1.95-1.85v-3.91c0-1.3.65-1.84,1.74-1.84h15.95c1.52,0,2.17.75,2.17,1.73v30.81h1.09c3.36-9.55,13.13-11.94,19.31-11.94,11.5,0,18.45,5.75,18.45,14.43v33.31h9.87c1.09,0,1.84.75,1.84,1.84v3.91c0,1.09-.76,1.85-1.84,1.85h-26.69Z"/>
    <path class="cls-2" d="M748.99,227.88c-1.47,0-2.08-.61-2.08-2.07v-4.4c0-1.46.61-2.08,2.08-2.08h10.62v-67l-27.95,60.66c-.61,1.22-.98,1.83-2.57,1.83h-6.83c-1.59,0-1.95-.61-2.56-1.83l-27.95-60.66v67h10.62c1.46,0,2.07.62,2.07,2.08v4.4c0,1.46-.61,2.07-2.07,2.07h-29.78c-1.46,0-2.08-.61-2.08-2.07v-4.4c0-1.46.61-2.08,2.08-2.08h11.59v-68.35h-11.59c-1.46,0-2.08-.61-2.08-2.07v-4.4c0-1.46.61-2.07,2.08-2.07h20.02c1.83,0,3.29-.13,4.39,2.32l28.68,63.34,28.68-63.34c1.1-2.44,2.57-2.32,4.4-2.32h20.01c1.47,0,2.08.61,2.08,2.07v4.4c0,1.46-.61,2.07-2.08,2.07h-11.59v68.35h11.59c1.47,0,2.08.62,2.08,2.08v4.4c0,1.46-.61,2.07-2.08,2.07h-29.78Z"/>
    <path class="cls-2" d="M842.11,226.04c0,1.09-.65,1.74-1.63,1.85-7.48.98-12.58-1.52-14.32-8.9-3.14,6.3-11.5,10.2-18.88,10.2-10.96,0-20.5-5.1-20.5-17.25s10.63-17.47,21.27-17.26c6.4.11,13.45,2.28,17.79,6.84v-9.33c0-8.57-7.05-11.82-14.54-11.82s-13.67,2.5-19.86,7.59c-.32.22-1.63,1.41-1.63-.11v-7.27c0-.44.11-.87.54-1.2,5.32-3.91,12.81-6.83,21.27-6.83,12.58,0,20.72,5.75,20.72,18.34v22.67c0,4.24,1.95,6.73,6.62,6.73h1.63c1.09,0,1.52.65,1.52,1.63v4.12ZM825.73,210.09c0-5.43-9.44-8.14-16.93-8.14-9.76,0-15.08,4.34-15.08,9.87,0,6.18,5.86,9.76,14.32,9.76s17.68-4.45,17.68-9.44v-2.06Z"/>
    <path class="cls-2" d="M850.96,227.88c-1.09,0-1.74-.54-1.74-1.85v-3.91c0-1.3.44-1.84,1.96-1.84h12.15v-38.96h-12.15c-1.63-.11-1.96-.54-1.96-1.84v-3.58c0-1.3.65-1.85,1.74-1.85h14.97c1.84,0,2.6,1.41,2.6,2.93v11.72h.87c1.95-9.76,8.79-14.65,15.73-14.65,2.06,0,6.62.22,9.22,2.82.22.22.22.33.22.66v7.59c0,.32,0,.76-.32.76h-1.41c-.33,0-.54-.22-.76-.44-1.95-1.95-4.56-2.71-7.92-2.71-7.05,0-14.32,6.73-14.32,18.67v18.88h12.37c1.52,0,1.95.54,1.95,1.84v3.91c0,1.3-.65,1.85-1.74,1.85h-31.46Z"/>
    <path class="cls-2" d="M961.83,213.23c.65,0,.76.22.87.66.32,1.19.54,2.82.54,4.12,0,6.51-4.01,11.18-12.7,11.18-18.34,0-23.76-29.08-34.39-23.22v14.33h9.87c1.52,0,1.95.54,1.95,1.84v3.91c0,1.3-.65,1.85-1.74,1.85h-27.67c-1.09,0-1.73-.54-1.73-1.85v-3.91c0-1.3.43-1.84,1.95-1.84h10.85v-60.76h-11.72c-1.52,0-1.95-.54-1.95-1.85v-3.91c0-1.3.65-1.84,1.74-1.84h16.06c1.63,0,2.39,1.08,2.39,2.6v32.22h.32c4.99-9.88,13.13-14.21,21.59-14.21,10.2,0,17.68,6.51,17.68,15.95,0,11.51-9.55,18.12-23.44,18.12v.54c4.67,5.86,12.04,14.54,19.1,14.43,4.34-.11,7.38-.75,8.68-7.49.11-.43.22-.87.87-.87h.87ZM927.11,200.21c13.67.54,21.59-2.16,21.59-10.52,0-5.97-4.88-9.55-11.28-9.55-7.71,0-19.2,7.16-21.05,20.83,1.3-1.3,6.94-3.04,10.74-.76Z"/>
    <path class="cls-2" d="M1015.94,220.83c0,.65-.22,1.19-.76,1.62-4.45,3.58-11.28,6.73-20.29,6.73-14,0-27.56-9.55-27.56-28.64s11.94-27.99,26.69-27.99c16.71,0,24.3,11.5,24.3,24.41v4.99c0,.75-.54,1.3-1.3,1.3h-42.86c.76,12.92,10.63,18.34,20.72,18.34,8.03,0,15.95-3.47,18.99-9.33.11-.32.43-.32.65-.22l.98.54c.33.22.43.32.43.65v7.6ZM1011.93,196.2c0-10.53-7.7-16.06-18.34-16.06-12.26,0-18.34,7.59-19.53,16.06h37.86Z"/>
    <path class="cls-2" d="M1061.49,198.91c0-.66.32-1.09,1.41-1.09h3.91c.65,0,1.19.22,1.19,1.09v11.5c0,14.11-9.87,18.77-18.55,18.77-11.5,0-17.47-5.86-17.47-16.06v-31.46h-7.7c-1.52,0-1.95-.44-1.95-1.74v-.21c0-.76.22-1.3.76-1.95l12.48-14.33c.54-.65.98-.98,1.52-.98h.22c.87,0,1.19.54,1.19,1.63v9.98h26.37c.98,0,1.3.44,1.3,1.09v5.32c0,.66-.43,1.2-1.3,1.2h-26.37v31.14c0,6.73,5.75,8.78,11.07,8.78,5.75,0,11.94-2.93,11.94-11.17v-11.5Z"/>
  </g>
</svg>