<?xml version="1.0" encoding="UTF-8"?>
<svg id="Layer_1" xmlns="http://www.w3.org/2000/svg" viewBox="0 0 1080 440.55">
  <defs>
    <style>
      .cls-1 {
        fill: #030404;
      }

      .cls-2 {
        fill: #040504;
      }
    </style>
  </defs>
  <g id="final-stack">
    <g id="final-version-1">
      <path class="cls-1" d="M217.12,409.57c-3.94,0-7.18-3.14-7.28-7.1l-2.53-101.43,9.31,2.36c26.38,6.7,59.34,9.44,64.45,2.67,15.53-20.55,15.17-183.46-.47-210.02-.72-1.22-4.68-3.3-12.22-3.67-11.04-.53-20.56,2.86-22.51,5.55-5.74,7.88-2,54.41.48,85.2,3.46,43.07,5.22,70.06.36,81.68-3.6,8.61-17.55,11.19-26.24,9.74-7.66-1.27-12.49-5.79-12.9-12.07-.35-5.32-.8-16.66-1.42-32.36-2.19-55.51-7.31-185.5-16.7-204.31-3.08-6.18-10.74-10.33-20.48-11.11-12.76-1-25.52,4.1-31.7,12.73-4.23,7.05-5.62,57.77-6.55,91.34-1.29,46.93-2.35,76.18-6.28,86.64-2.07,5.51-7.76,9.19-16.03,10.37-9.19,1.33-24.85-.48-30.92-8.56-6.32-8.42-5.34-31.64-1.41-86.58,2.4-33.45,5.67-79.26.77-88.69-.89-1.72-4.84-3.82-11.4-4.38-11.41-.95-23.85,2.97-28.36,8.94-24.01,31.75-34.99,187.01-1.99,225.56,10.99,12.84,55.97,13.28,81.76,10.55l8.05-.86v130.54c0,4.02-3.26,7.28-7.28,7.28s-7.28-3.26-7.28-7.28v-114.51c-20.27,1.43-70,2.82-86.31-16.25C-15.78,225.02.44,60.83,25.48,27.73c8.86-11.72,27.6-15.82,41.2-14.67,11.32.96,19.52,5.28,23.1,12.18,6.34,12.2,4.54,44.58.83,96.44-2.13,29.69-5.03,70.35-1.36,76.96.72.79,5.28,2.78,12,2.99,5.52.22,8.81-.99,9.69-1.66,3.26-9.5,4.31-47.77,5.24-81.59,1.68-61.13,3.14-90.87,9.26-99.42C134.62,6.12,152.2-1.28,170.12.18c14.88,1.18,26.98,8.33,32.36,19.12,9.95,19.95,14.62,118.98,18.22,210.24.54,13.71.98,24.79,1.31,30.5,2.82.82,9.29.06,11.5-1.46,3.5-10.04.76-44.14-1.67-74.29-4.14-51.46-6.05-83.52,2.27-94.94,6.43-8.82,22.22-12.19,34.99-11.51,11.74.57,20.28,4.42,24.06,10.83,18.83,32,18.49,201.11-.46,226.18-11.41,15.09-49.61,9.33-70.35,4.85l2.05,82.42c.1,4.02-3.08,7.36-7.1,7.46h-.18Z"/>
      <path class="cls-1" d="M10.74,431.66c37.73-4.16,298.83-11.91,305.36,0,6.54,11.94-243.59,10.56-305.36,3.48-4.48-.51-4.54-2.98,0-3.48Z"/>
      <path class="cls-1" d="M389.08,386.96c-2.87,0-5.59-1.71-6.74-4.53-1.52-3.72.26-7.97,3.99-9.49,37.7-15.41,55.84-58.61,40.43-96.31-15.4-37.7-58.61-55.84-96.31-40.43-3.72,1.53-7.97-.27-9.49-3.99-1.52-3.72.26-7.97,3.99-9.49,45.14-18.44,96.85,3.28,115.29,48.4,18.44,45.13-3.28,96.85-48.4,115.29-.9.37-1.83.54-2.75.54Z"/>
    </g>
    <g>
      <path class="cls-2" d="M494.85,66.65c-1.08,0-1.54-.45-1.54-1.54v-3.25c0-1.08.46-1.53,1.54-1.53h9.85V9.71h-17.08l-1.72,13.28c-.09.45-.36,1-1.18,1h-1.9c-.73,0-1.09-.27-1.09-1.09V4.38c0-.63.46-.99,1.09-.99h49.62c.63,0,1.08.36,1.08.99v18.53c0,.81-.36,1.09-1.08,1.09h-1.9c-.81,0-1.09-.55-1.18-1l-1.72-13.28h-17.08v50.62h9.85c1.08,0,1.53.45,1.53,1.53v3.25c0,1.09-.45,1.54-1.53,1.54h-25.58Z"/>
      <path class="cls-2" d="M574.73,66.65c-.9,0-1.53-.64-1.53-1.54v-3.25c0-.9.63-1.53,1.53-1.53h8.59v-26.13c0-4.61-4.79-7.14-10.22-7.14-7.59,0-16.72,4.52-16.72,13.73v19.53h7.86c.91,0,1.54.63,1.54,1.53v3.25c0,.9-.63,1.54-1.54,1.54h-21.96c-.9,0-1.53-.64-1.53-1.54v-3.25c0-.9.63-1.53,1.53-1.53h8.68V9.71h-9.49c-1.26,0-1.63-.45-1.63-1.54v-3.25c0-1.09.54-1.54,1.45-1.54h13.28c1.27,0,1.81.63,1.81,1.44v25.68h.91c2.8-7.96,10.93-9.95,16.08-9.95,9.58,0,15.37,4.79,15.37,12.03v27.74h8.23c.9,0,1.53.63,1.53,1.53v3.25c0,.9-.63,1.54-1.53,1.54h-22.23Z"/>
      <path class="cls-2" d="M643.3,60.78c0,.54-.18.99-.63,1.35-3.71,2.98-9.4,5.61-16.9,5.61-11.66,0-22.96-7.96-22.96-23.86s9.94-23.32,22.23-23.32c13.92,0,20.24,9.59,20.24,20.34v4.16c0,.63-.45,1.08-1.08,1.08h-35.7c.63,10.75,8.86,15.27,17.26,15.27,6.69,0,13.29-2.89,15.82-7.76.09-.27.36-.27.54-.19l.81.45c.27.19.36.27.36.54v6.33ZM639.96,40.26c0-8.76-6.42-13.37-15.27-13.37-10.21,0-15.27,6.32-16.27,13.37h31.54Z"/>
    </g>
    <g>
      <path class="cls-2" d="M484.82,253.88c-2.17,0-3.07-.9-3.07-3.07v-6.51c0-2.17.91-3.08,3.07-3.08h19.71v-101.22h-19.71c-2.17,0-3.07-.9-3.07-3.07v-6.51c0-2.17.91-3.07,3.07-3.07h51.16c2.17,0,3.07.9,3.07,3.07v6.51c0,2.17-.91,3.07-3.07,3.07h-19.71v101.22h69.41l3.25-29.27c.18-1.63,1.08-2.72,3.62-2.72h2.17c2.53,0,3.44.9,3.44,3.07v38.51c0,1.44-.54,3.07-2.89,3.07h-110.44Z"/>
      <path class="cls-2" d="M691.59,251.14c0,1.61-.97,2.58-2.41,2.74-11.08,1.45-18.64-2.25-21.21-13.18-4.66,9.32-17.03,15.11-27.96,15.11-16.23,0-30.37-7.56-30.37-25.55s15.74-25.87,31.49-25.56c9.48.17,19.93,3.38,26.35,10.13v-13.82c0-12.69-10.45-17.51-21.53-17.51s-20.24,3.7-29.41,11.24c-.48.32-2.41,2.09-2.41-.16v-10.76c0-.65.16-1.28.8-1.77,7.88-5.78,18.97-10.12,31.5-10.12,18.64,0,30.69,8.51,30.69,27.16v33.58c0,6.27,2.89,9.97,9.8,9.97h2.41c1.61,0,2.25.96,2.25,2.41v6.1ZM667.33,227.52c0-8.04-13.98-12.05-25.07-12.05-14.46,0-22.33,6.42-22.33,14.62,0,9.16,8.68,14.46,21.21,14.46s26.19-6.59,26.19-13.98v-3.05Z"/>
      <path class="cls-2" d="M765.47,253.88c-2.25,0-2.89-1.13-3.22-2.57l-3.53-12.7h-.64c-4.98,14.14-17.99,17.35-27.16,17.35-17.03,0-25.55-11.57-25.55-21.05v-49.49h-14.62c-1.61,0-2.73-1.13-2.73-2.74v-5.78c0-1.61,1.12-2.74,2.73-2.74h21.53c1.6,0,2.73,1.13,2.73,2.74v55.12c0,8.2,7.71,12.53,16.71,12.53,12.37,0,26.99-7.87,26.99-24.26v-34.86h-15.91c-1.61,0-2.73-1.13-2.73-2.74v-5.78c0-1.61,1.12-2.74,2.73-2.74h22.82c1.61,0,2.73,1.13,2.73,2.74v53.67l5.47,20.41c.48,1.61-.49,2.89-2.57,2.89h-5.78Z"/>
      <path class="cls-2" d="M844.65,253.88c-1.61,0-2.73-1.13-2.73-2.74v-5.78c0-1.61,1.12-2.73,2.73-2.73h15.26v-46.61c0-8.2-8.51-12.37-18.48-12.37-13.33,0-29.41,7.87-29.41,24.11v34.87h13.98c1.61,0,2.74,1.12,2.74,2.73v5.78c0,1.61-1.13,2.74-2.74,2.74h-39.04c-1.61,0-2.74-1.13-2.74-2.74v-5.78c0-1.61,1.13-2.73,2.74-2.73h15.43v-57.2h-16.87c-2.25,0-2.9-.8-2.9-2.74v-5.78c0-1.93.97-2.74,2.57-2.74h23.46c2.25,0,3.05,1.13,3.22,2.58l1.12,12.85h.64c4.98-14.15,19.45-17.68,28.6-17.68,17.03,0,27.32,8.35,27.32,21.21v49.5h14.62c1.61,0,2.73,1.12,2.73,2.73v5.78c0,1.61-1.12,2.74-2.73,2.74h-39.53Z"/>
      <path class="cls-2" d="M960.61,241.98c0,.96-.32,1.76-1.12,2.41-5.95,4.82-17.03,11.41-33.74,11.41-23.95,0-40.18-14.15-40.18-41.78s18.64-42.1,41.46-42.1c13.66,0,24.43,4.66,31.66,10.44.8.65,1.12,1.45,1.12,2.41v13.66c0,.65-.48,1.28-1.12,1.45l-2.57.8c-.8.31-1.28-.17-1.45-1.13-1.93-11.09-13.98-16.39-27.32-16.39-19.76,0-31.65,11.89-31.65,30.85s10.28,30.53,30.69,30.53c15.74,0,26.35-6.42,29.89-15.26.16-.48.8-.64,1.28-.48l2.25.8c.49.16.8.65.8,1.13v11.24Z"/>
      <path class="cls-2" d="M1030.11,253.88c-1.61,0-2.73-1.13-2.73-2.74v-5.78c0-1.61,1.12-2.73,2.73-2.73h15.26v-46.44c0-8.2-8.51-12.7-18.16-12.7-13.5,0-29.73,8.03-29.73,24.42v34.71h13.98c1.61,0,2.74,1.12,2.74,2.73v5.78c0,1.61-1.13,2.74-2.74,2.74h-39.04c-1.61,0-2.74-1.13-2.74-2.74v-5.78c0-1.61,1.13-2.73,2.74-2.73h15.43v-89.99h-16.88c-2.25,0-2.89-.8-2.89-2.74v-5.78c0-1.92.97-2.73,2.57-2.73h23.62c2.25,0,3.21,1.12,3.21,2.57v45.64h1.61c4.98-14.15,19.45-17.68,28.6-17.68,17.03,0,27.32,8.51,27.32,21.37v49.33h14.62c1.61,0,2.73,1.12,2.73,2.73v5.78c0,1.61-1.12,2.74-2.73,2.74h-39.53Z"/>
    </g>
    <g>
      <path class="cls-2" d="M597.97,438.05c-2.17,0-3.07-.9-3.07-3.07v-6.51c0-2.17.9-3.08,3.07-3.08h15.73v-99.23l-41.39,89.84c-.91,1.8-1.45,2.71-3.8,2.71h-10.12c-2.35,0-2.89-.9-3.79-2.71l-41.39-89.84v99.23h15.73c2.17,0,3.07.91,3.07,3.08v6.51c0,2.17-.9,3.07-3.07,3.07h-44.11c-2.17,0-3.07-.9-3.07-3.07v-6.51c0-2.17.91-3.08,3.07-3.08h17.17v-101.22h-17.17c-2.17,0-3.07-.9-3.07-3.07v-6.51c0-2.17.91-3.07,3.07-3.07h29.65c2.71,0,4.88-.19,6.5,3.43l42.48,93.81,42.47-93.81c1.63-3.62,3.8-3.43,6.51-3.43h29.64c2.17,0,3.07.9,3.07,3.07v6.51c0,2.17-.9,3.07-3.07,3.07h-17.17v101.22h17.17c2.17,0,3.07.91,3.07,3.08v6.51c0,2.17-.9,3.07-3.07,3.07h-44.1Z"/>
      <path class="cls-2" d="M734.82,435.32c0,1.61-.97,2.58-2.41,2.74-11.08,1.45-18.64-2.25-21.21-13.18-4.66,9.32-17.03,15.11-27.96,15.11-16.23,0-30.37-7.56-30.37-25.55s15.74-25.87,31.49-25.56c9.48.17,19.93,3.38,26.35,10.13v-13.82c0-12.69-10.45-17.51-21.53-17.51s-20.24,3.7-29.41,11.24c-.48.32-2.41,2.09-2.41-.16v-10.76c0-.65.16-1.28.8-1.77,7.88-5.78,18.97-10.12,31.5-10.12,18.64,0,30.69,8.51,30.69,27.16v33.58c0,6.27,2.89,9.97,9.8,9.97h2.41c1.61,0,2.25.96,2.25,2.41v6.1ZM710.56,411.7c0-8.04-13.98-12.05-25.07-12.05-14.46,0-22.33,6.42-22.33,14.62,0,9.16,8.68,14.46,21.21,14.46s26.19-6.59,26.19-13.98v-3.05Z"/>
      <path class="cls-2" d="M746.47,438.05c-1.61,0-2.57-.8-2.57-2.74v-5.78c0-1.92.65-2.73,2.9-2.73h17.99v-57.69h-17.99c-2.41-.16-2.9-.8-2.9-2.73v-5.3c0-1.93.97-2.74,2.57-2.74h22.18c2.73,0,3.85,2.09,3.85,4.34v17.35h1.29c2.89-14.46,13.01-21.7,23.3-21.7,3.05,0,9.8.32,13.66,4.18.32.32.32.49.32.97v11.24c0,.48,0,1.13-.48,1.13h-2.09c-.49,0-.8-.32-1.13-.65-2.89-2.89-6.75-4.02-11.73-4.02-10.45,0-21.21,9.97-21.21,27.65v27.96h18.32c2.25,0,2.89.8,2.89,2.73v5.78c0,1.93-.97,2.74-2.57,2.74h-46.6Z"/>
      <path class="cls-2" d="M913.66,416.36c.96,0,1.12.32,1.28.97.48,1.76.8,4.18.8,6.1,0,9.65-5.95,16.56-18.8,16.56-27.16,0-35.19-43.07-50.93-34.39v21.22h14.62c2.25,0,2.89.8,2.89,2.73v5.78c0,1.93-.97,2.74-2.57,2.74h-40.97c-1.61,0-2.57-.8-2.57-2.74v-5.78c0-1.92.64-2.73,2.89-2.73h16.07v-89.99h-17.36c-2.25,0-2.89-.8-2.89-2.74v-5.78c0-1.92.97-2.73,2.57-2.73h23.78c2.41,0,3.53,1.6,3.53,3.85v47.72h.48c7.39-14.63,19.45-21.05,31.98-21.05,15.1,0,26.19,9.64,26.19,23.62,0,17.04-14.14,26.83-34.71,26.83v.8c6.91,8.68,17.84,21.54,28.28,21.37,6.43-.16,10.93-1.12,12.85-11.09.16-.64.32-1.28,1.28-1.28h1.29ZM862.24,397.07c20.24.8,31.97-3.21,31.97-15.58,0-8.84-7.23-14.15-16.71-14.15-11.41,0-28.44,10.61-31.18,30.85,1.93-1.93,10.28-4.5,15.91-1.13Z"/>
      <path class="cls-2" d="M993.8,427.61c0,.96-.32,1.76-1.12,2.4-6.59,5.3-16.71,9.97-30.05,9.97-20.73,0-40.82-14.15-40.82-42.42s17.68-41.46,39.53-41.46c24.74,0,35.99,17.03,35.99,36.16v7.39c0,1.12-.8,1.92-1.93,1.92h-63.47c1.12,19.13,15.74,27.16,30.69,27.16,11.89,0,23.62-5.14,28.12-13.81.16-.48.65-.48.97-.32l1.45.8c.49.32.64.48.64.96v11.25ZM987.85,391.13c0-15.59-11.41-23.78-27.16-23.78-18.16,0-27.16,11.24-28.92,23.78h56.08Z"/>
      <path class="cls-2" d="M1061.26,395.15c0-.97.48-1.61,2.09-1.61h5.78c.97,0,1.77.32,1.77,1.61v17.03c0,20.89-14.62,27.8-27.48,27.8-17.03,0-25.87-8.68-25.87-23.78v-46.6h-11.41c-2.25,0-2.89-.65-2.89-2.58v-.31c0-1.13.32-1.93,1.12-2.89l18.48-21.22c.8-.96,1.45-1.45,2.25-1.45h.32c1.28,0,1.76.8,1.76,2.41v14.78h39.05c1.45,0,1.93.65,1.93,1.61v7.87c0,.97-.64,1.77-1.93,1.77h-39.05v46.12c0,9.96,8.52,13.01,16.39,13.01,8.51,0,17.68-4.33,17.68-16.55v-17.03Z"/>
    </g>
  </g>
</svg>